<svg xmlns="http://www.w3.org/2000/svg" width="920" height="560" viewBox="0 0 920 560"><rect width="100%" height="100%" fill="white"/><text x="460.0" y="29" text-anchor="middle" font-size="20">100m方案 拦洪量频率曲线及防洪库容平移</text><line x1="82.0" y1="52" x2="82.0" y2="484" stroke="#e5e7eb"/><text x="82.0" y="507" text-anchor="middle" font-size="12">0</text><line x1="82" y1="484.0" x2="886" y2="484.0" stroke="#e5e7eb"/><text x="73" y="488.0" text-anchor="end" font-size="12">0.0</text><line x1="242.8" y1="52" x2="242.8" y2="484" stroke="#e5e7eb"/><text x="242.8" y="507" text-anchor="middle" font-size="12">20</text><line x1="82" y1="397.6" x2="886" y2="397.6" stroke="#e5e7eb"/><text x="73" y="401.6" text-anchor="end" font-size="12">3.7</text><line x1="403.6" y1="52" x2="403.6" y2="484" stroke="#e5e7eb"/><text x="403.6" y="507" text-anchor="middle" font-size="12">40</text><line x1="82" y1="311.2" x2="886" y2="311.2" stroke="#e5e7eb"/><text x="73" y="315.2" text-anchor="end" font-size="12">7.4</text><line x1="564.4" y1="52" x2="564.4" y2="484" stroke="#e5e7eb"/><text x="564.4" y="507" text-anchor="middle" font-size="12">60</text><line x1="82" y1="224.8" x2="886" y2="224.8" stroke="#e5e7eb"/><text x="73" y="228.8" text-anchor="end" font-size="12">11.1</text><line x1="725.2" y1="52" x2="725.2" y2="484" stroke="#e5e7eb"/><text x="725.2" y="507" text-anchor="middle" font-size="12">80</text><line x1="82" y1="138.4" x2="886" y2="138.4" stroke="#e5e7eb"/><text x="73" y="142.4" text-anchor="end" font-size="12">14.8</text><line x1="886.0" y1="52" x2="886.0" y2="484" stroke="#e5e7eb"/><text x="886.0" y="507" text-anchor="middle" font-size="12">100</text><line x1="82" y1="52.0" x2="886" y2="52.0" stroke="#e5e7eb"/><text x="73" y="56.0" text-anchor="end" font-size="12">18.4</text><polyline points="82.0,84.0 759.9,484.0" fill="none" stroke="#0f6b8f" stroke-width="2.5"/><polyline points="82.0,237.8 122.2,261.5 122.2,484.0" fill="none" stroke="#f97316" stroke-width="2.5"/><circle cx="171.3" cy="127.9" r="3.5" fill="#111827"/><circle cx="260.7" cy="165.4" r="3.5" fill="#111827"/><circle cx="350.0" cy="247.4" r="3.5" fill="#111827"/><circle cx="439.3" cy="331.7" r="3.5" fill="#111827"/><circle cx="528.7" cy="338.8" r="3.5" fill="#111827"/><circle cx="618.0" cy="429.9" r="3.5" fill="#111827"/><circle cx="707.3" cy="451.7" r="3.5" fill="#111827"/><circle cx="796.7" cy="476.7" r="3.5" fill="#111827"/><line x1="82" y1="52" x2="82" y2="484" stroke="#64748b"/><line x1="82" y1="484" x2="886" y2="484" stroke="#64748b"/><text x="460.0" y="535" text-anchor="middle" font-size="14">频率 P (%)</text><text x="24" y="280.0" transform="rotate(-90 24,280.0)" text-anchor="middle" font-size="14">拦洪量 (亿m3)</text><text x="94" y="72" font-size="12" fill="#475569">建库前拟合：W=-0.2025P+17.0750</text><text x="94" y="90" font-size="12" fill="#475569">防洪库容 ΔV=6.564 亿m3</text></svg>