<svg xmlns="http://www.w3.org/2000/svg" width="980" height="560" viewBox="0 0 980 560">
<rect width="100%" height="100%" fill="white"/>
<text x="490" y="28" text-anchor="middle" font-size="20">调度图线 - 正常蓄水位 108 m（3月至次年3月）</text>
<line x1="70" y1="50" x2="70" y2="490" stroke="#444"/>
<line x1="70" y1="490" x2="950" y2="490" stroke="#444"/>
<line x1="70" y1="490.0" x2="950" y2="490.0" stroke="#ddd"/>
<text x="62" y="494.0" text-anchor="end" font-size="12">85.6</text>
<line x1="70" y1="402.0" x2="950" y2="402.0" stroke="#ddd"/>
<text x="62" y="406.0" text-anchor="end" font-size="12">90.5</text>
<line x1="70" y1="314.0" x2="950" y2="314.0" stroke="#ddd"/>
<text x="62" y="318.0" text-anchor="end" font-size="12">95.4</text>
<line x1="70" y1="226.0" x2="950" y2="226.0" stroke="#ddd"/>
<text x="62" y="230.0" text-anchor="end" font-size="12">100.2</text>
<line x1="70" y1="138.0" x2="950" y2="138.0" stroke="#ddd"/>
<text x="62" y="142.0" text-anchor="end" font-size="12">105.1</text>
<line x1="70" y1="50.0" x2="950" y2="50.0" stroke="#ddd"/>
<text x="62" y="54.0" text-anchor="end" font-size="12">110.0</text>
<text x="70.0" y="514" text-anchor="middle" font-size="13">3月</text>
<text x="143.3" y="514" text-anchor="middle" font-size="13">4月</text>
<text x="216.7" y="514" text-anchor="middle" font-size="13">5月</text>
<text x="290.0" y="514" text-anchor="middle" font-size="13">6月</text>
<text x="363.3" y="514" text-anchor="middle" font-size="13">7月</text>
<text x="436.7" y="514" text-anchor="middle" font-size="13">8月</text>
<text x="510.0" y="514" text-anchor="middle" font-size="13">9月</text>
<text x="583.3" y="514" text-anchor="middle" font-size="13">10月</text>
<text x="656.7" y="514" text-anchor="middle" font-size="13">11月</text>
<text x="730.0" y="514" text-anchor="middle" font-size="13">12月</text>
<text x="803.3" y="514" text-anchor="middle" font-size="13">1月</text>
<text x="876.7" y="514" text-anchor="middle" font-size="13">2月</text>
<text x="950.0" y="514" text-anchor="middle" font-size="13">3月</text>
<text x="22" y="280" transform="rotate(-90 22,280)" text-anchor="middle" font-size="14">水位 (m)</text>
<polyline points="70.0,434.4 143.3,453.9 216.7,402.0 290.0,260.2 363.3,133.7 436.7,139.9 510.0,86.1 583.3,86.1 656.7,137.1 730.0,172.9 803.3,229.7 876.7,280.8 950.0,453.9" fill="none" stroke="#1f77b4" stroke-width="2.5"/>
<polyline points="810.0,62.0 844.0,62.0" fill="none" stroke="#1f77b4" stroke-width="2.5"/>
<text x="852" y="66" font-size="13">防破坏线</text>
<polyline points="70.0,359.2 143.3,373.9 216.7,334.9 290.0,228.6 363.3,133.7" fill="none" stroke="#ff7f0e" stroke-width="1.8" stroke-dasharray="6 4"/>








<polyline points="810.0,84.0 844.0,84.0" fill="none" stroke="#ff7f0e" stroke-width="2.5" stroke-dasharray="6 4"/>
<text x="852" y="88" font-size="13">辅助线1</text>
<polyline points="70.0,284.0 143.3,293.8 216.7,267.8 290.0,196.9 363.3,133.7" fill="none" stroke="#2ca02c" stroke-width="1.8" stroke-dasharray="6 4"/>








<polyline points="810.0,106.0 844.0,106.0" fill="none" stroke="#2ca02c" stroke-width="2.5" stroke-dasharray="6 4"/>
<text x="852" y="110" font-size="13">辅助线2</text>
<polyline points="70.0,208.9 143.3,213.8 216.7,200.8 290.0,165.3 363.3,133.7" fill="none" stroke="#9467bd" stroke-width="1.8" stroke-dasharray="6 4"/>








<polyline points="810.0,128.0 844.0,128.0" fill="none" stroke="#9467bd" stroke-width="2.5" stroke-dasharray="6 4"/>
<text x="852" y="132" font-size="13">辅助线3</text>
<polyline points="70.0,133.7 143.3,133.7 216.7,133.7 290.0,133.7 363.3,133.7" fill="none" stroke="#d62728" stroke-width="2.5"/>








<polyline points="810.0,150.0 844.0,150.0" fill="none" stroke="#d62728" stroke-width="2.5"/>
<text x="852" y="154" font-size="13">防洪限制水位</text>
<polyline points="70.0,86.1 143.3,86.1 216.7,86.1 290.0,86.1 363.3,86.1 436.7,86.1 510.0,86.1 583.3,86.1 656.7,86.1 730.0,86.1 803.3,86.1 876.7,86.1 950.0,86.1" fill="none" stroke="#111111" stroke-width="1.8"/>
<polyline points="810.0,172.0 844.0,172.0" fill="none" stroke="#111111" stroke-width="2.5"/>
<text x="852" y="176" font-size="13">正常蓄水位</text>
</svg>