<svg xmlns="http://www.w3.org/2000/svg" width="980" height="560" viewBox="0 0 980 560">
<rect width="100%" height="100%" fill="white"/>
<text x="490" y="28" text-anchor="middle" font-size="20">调度图线 - 正常蓄水位 115 m（3月至次年3月）</text>
<line x1="70" y1="50" x2="70" y2="490" stroke="#444"/>
<line x1="70" y1="490" x2="950" y2="490" stroke="#444"/>
<line x1="70" y1="490.0" x2="950" y2="490.0" stroke="#ddd"/>
<text x="62" y="494.0" text-anchor="end" font-size="12">90.2</text>
<line x1="70" y1="402.0" x2="950" y2="402.0" stroke="#ddd"/>
<text x="62" y="406.0" text-anchor="end" font-size="12">95.6</text>
<line x1="70" y1="314.0" x2="950" y2="314.0" stroke="#ddd"/>
<text x="62" y="318.0" text-anchor="end" font-size="12">100.9</text>
<line x1="70" y1="226.0" x2="950" y2="226.0" stroke="#ddd"/>
<text x="62" y="230.0" text-anchor="end" font-size="12">106.3</text>
<line x1="70" y1="138.0" x2="950" y2="138.0" stroke="#ddd"/>
<text x="62" y="142.0" text-anchor="end" font-size="12">111.6</text>
<line x1="70" y1="50.0" x2="950" y2="50.0" stroke="#ddd"/>
<text x="62" y="54.0" text-anchor="end" font-size="12">117.0</text>
<text x="70.0" y="514" text-anchor="middle" font-size="13">3月</text>
<text x="143.3" y="514" text-anchor="middle" font-size="13">4月</text>
<text x="216.7" y="514" text-anchor="middle" font-size="13">5月</text>
<text x="290.0" y="514" text-anchor="middle" font-size="13">6月</text>
<text x="363.3" y="514" text-anchor="middle" font-size="13">7月</text>
<text x="436.7" y="514" text-anchor="middle" font-size="13">8月</text>
<text x="510.0" y="514" text-anchor="middle" font-size="13">9月</text>
<text x="583.3" y="514" text-anchor="middle" font-size="13">10月</text>
<text x="656.7" y="514" text-anchor="middle" font-size="13">11月</text>
<text x="730.0" y="514" text-anchor="middle" font-size="13">12月</text>
<text x="803.3" y="514" text-anchor="middle" font-size="13">1月</text>
<text x="876.7" y="514" text-anchor="middle" font-size="13">2月</text>
<text x="950.0" y="514" text-anchor="middle" font-size="13">3月</text>
<text x="22" y="280" transform="rotate(-90 22,280)" text-anchor="middle" font-size="14">水位 (m)</text>
<polyline points="70.0,392.1 143.3,457.1 216.7,367.6 290.0,239.3 363.3,88.2 436.7,105.0 510.0,82.9 583.3,84.2 656.7,118.6 730.0,153.6 803.3,226.2 876.7,285.3 950.0,457.1" fill="none" stroke="#1f77b4" stroke-width="2.5"/>
<polyline points="810.0,62.0 844.0,62.0" fill="none" stroke="#1f77b4" stroke-width="2.5"/>
<text x="852" y="66" font-size="13">防破坏线</text>
<polyline points="70.0,316.1 143.3,364.9 216.7,297.7 290.0,201.5 363.3,88.2" fill="none" stroke="#ff7f0e" stroke-width="1.8" stroke-dasharray="6 4"/>








<polyline points="810.0,84.0 844.0,84.0" fill="none" stroke="#ff7f0e" stroke-width="2.5" stroke-dasharray="6 4"/>
<text x="852" y="88" font-size="13">辅助线1</text>
<polyline points="70.0,240.1 143.3,272.6 216.7,227.9 290.0,163.7 363.3,88.2" fill="none" stroke="#2ca02c" stroke-width="1.8" stroke-dasharray="6 4"/>








<polyline points="810.0,106.0 844.0,106.0" fill="none" stroke="#2ca02c" stroke-width="2.5" stroke-dasharray="6 4"/>
<text x="852" y="110" font-size="13">辅助线2</text>
<polyline points="70.0,164.2 143.3,180.4 216.7,158.0 290.0,126.0 363.3,88.2" fill="none" stroke="#9467bd" stroke-width="1.8" stroke-dasharray="6 4"/>








<polyline points="810.0,128.0 844.0,128.0" fill="none" stroke="#9467bd" stroke-width="2.5" stroke-dasharray="6 4"/>
<text x="852" y="132" font-size="13">辅助线3</text>
<polyline points="70.0,88.2 143.3,88.2 216.7,88.2 290.0,88.2 363.3,88.2" fill="none" stroke="#d62728" stroke-width="2.5"/>








<polyline points="810.0,150.0 844.0,150.0" fill="none" stroke="#d62728" stroke-width="2.5"/>
<text x="852" y="154" font-size="13">防洪限制水位</text>
<polyline points="70.0,82.9 143.3,82.9 216.7,82.9 290.0,82.9 363.3,82.9 436.7,82.9 510.0,82.9 583.3,82.9 656.7,82.9 730.0,82.9 803.3,82.9 876.7,82.9 950.0,82.9" fill="none" stroke="#111111" stroke-width="1.8"/>
<polyline points="810.0,172.0 844.0,172.0" fill="none" stroke="#111111" stroke-width="2.5"/>
<text x="852" y="176" font-size="13">正常蓄水位</text>
</svg>